<?xml version="1.0" encoding="iso-8859-1"?>
<!-- Uploaded to: SVG Repo, www.svgrepo.com, Generator: SVG Repo Mixer Tools -->
<svg fill="#000000" height="800px" width="800px" version="1.1" id="Layer_1" xmlns="http://www.w3.org/2000/svg" xmlns:xlink="http://www.w3.org/1999/xlink" 
	 viewBox="0 0 512 512" xml:space="preserve">
<g>
	<g>
		<polygon points="112.744,322.783 120.757,389.565 391.243,389.565 399.256,322.783 		"/>
	</g>
</g>
<g>
	<g>
		<path d="M395.13,133.565H283.826V83.478c0-9.22,7.475-16.696,16.696-16.696H384c9.22,0,16.696-7.475,16.696-16.696V16.696
			C400.696,7.475,393.22,0,384,0h-83.478c-46.104,0-83.478,37.374-83.478,83.478v50.087H116.87
			c-27.619,0-50.087,22.468-50.087,50.087v16.696h378.435v-16.696C445.217,156.033,422.75,133.565,395.13,133.565z"/>
	</g>
</g>
<g>
	<g>
		<polygon points="102.058,233.739 108.737,289.391 403.263,289.391 409.942,233.739 		"/>
	</g>
</g>
<g>
	<g>
		<path d="M124.763,422.957l8.921,74.337c1.012,8.391,8.12,14.707,16.577,14.707h211.478c8.457,0,15.565-6.315,16.577-14.707
			l8.921-74.337H124.763z"/>
	</g>
</g>
</svg>